<svg width="300" height="264" viewBox="0 0 300 264" fill="none" xmlns="http://www.w3.org/2000/svg">
<g opacity="0.1">
<path d="M28.5879 247.919C15.4643 247.529 6.90815 244.309 2.99793 238.261C-2.01983 230.504 0.655757 218.19 10.9502 201.661C22.1081 183.746 42.5556 160.254 71.7295 131.85C110.351 94.2336 148.109 62.3518 183.939 37.0823C215.067 15.1331 245.73 -2.50994 275.085 -15.3491C326.478 -37.8421 366.923 -42.9871 402.983 -45.2034C441.63 -47.5793 474.921 -42.0264 501.918 -28.7014C525.392 -17.1145 543.716 0.0433143 556.382 22.3056C582.768 68.6954 577.951 126.831 558.05 156.242C548.716 170.034 536.564 176.658 523.846 174.875C469.999 167.336 422.118 164.301 377.462 165.595C315.93 167.377 261.283 177.63 215.03 196.057C181.969 209.23 133.568 227.256 90.7453 238.312C64.2357 245.16 43.4689 248.362 28.5808 247.919L28.5879 247.919ZM403.044 -44.1342L403.113 -43.0648C367.253 -40.8639 327.023 -35.7412 275.941 -13.3894C246.724 -0.603439 216.185 16.9645 185.175 38.8312C149.432 64.0316 111.769 95.8446 73.2215 133.377C44.1726 161.663 23.8291 185.022 12.7614 202.789C2.94762 218.544 0.266435 230.085 4.79196 237.082C12.4757 248.966 42.0154 248.669 90.2139 236.226C132.922 225.195 181.235 207.202 214.239 194.056C260.723 175.536 315.622 165.233 377.397 163.444C422.168 162.146 470.17 165.192 524.138 172.749C536.008 174.413 547.414 168.118 556.269 155.042C575.804 126.179 580.484 69.0358 554.513 23.3747C542.064 1.49147 524.046 -15.3778 500.967 -26.7739C474.308 -39.9312 441.387 -45.4159 403.113 -43.0576L403.044 -44.127L403.044 -44.1342Z" fill="white"/>
<path d="M47.8378 231.764C35.7573 231.405 27.8942 228.441 24.3345 222.869C14.741 207.877 35.5781 175.85 88.0371 124.955C156.826 59.9029 222.373 14.4548 282.859 -10.132C331.953 -30.0856 369.469 -33.627 402.7 -34.4732C437.04 -36.2751 466.584 -31.206 490.501 -19.3981C511.403 -9.08407 527.669 6.10694 538.854 25.7677C546.56 39.3144 555.581 61.7764 554.781 91.8195C554.21 113.165 548.463 133.576 539.001 147.816C529.458 162.183 516.978 169.22 503.855 167.619C405.755 156.937 302.771 151.806 214.348 186.293C184.304 198.009 140.584 213.974 102.876 223.499C79.5053 229.402 61.1185 232.158 47.8378 231.764ZM422.797 -32.7081C416.325 -32.9005 409.651 -32.8195 402.776 -32.4579C369.709 -31.614 332.401 -28.095 283.612 -8.26131C223.357 16.232 158.022 61.5432 89.4235 126.422C62.5868 152.453 43.7718 173.945 33.5115 190.289C24.4294 204.762 21.9049 215.361 26.0186 221.781C32.9813 232.662 58.6749 232.58 102.37 221.543C139.977 212.044 183.617 196.104 213.603 184.416C302.432 149.768 405.702 154.901 504.072 165.612C516.419 167.118 528.209 160.398 537.311 146.699C546.563 132.768 552.192 112.74 552.751 91.7664C553.187 75.4384 550.827 50.9107 537.094 26.7684C526.112 7.46482 510.139 -7.45961 489.604 -17.5908C470.767 -26.8836 448.359 -31.9483 422.79 -32.7083L422.797 -32.7081Z" fill="white"/>
<path d="M67.0725 215.636C56.0207 215.308 48.8578 212.602 45.6415 207.506C36.9889 193.816 56.1919 164.564 104.344 118.076C169.923 58.0714 232.596 16.693 290.634 -4.91473C337.855 -22.4955 373.646 -24.2972 402.424 -23.7426C432.485 -24.9839 458.347 -20.3825 479.234 -10.0617C497.584 -0.991215 511.804 12.2836 521.513 29.4002C531.257 46.568 535.974 66.8388 535.158 88.0269C534.419 107.362 529.117 125.53 520.231 139.178C510.424 154.238 497.508 161.756 483.857 160.355L476.288 159.757C435.627 156.55 389.536 152.916 344.456 154.048C292.863 155.351 250.078 162.705 213.651 176.53C174.346 191.445 141.147 202.271 114.986 208.693C94.7528 213.665 78.746 215.976 67.0798 215.629L67.0725 215.636ZM418.116 -21.958C413.029 -22.1092 407.809 -22.071 402.446 -21.8507C373.783 -22.4018 338.214 -20.6079 291.289 -3.1401C233.482 18.3885 171.013 59.6369 105.633 119.461C58.9016 164.573 39.2471 193.862 47.2373 206.5C53.3697 216.211 76.0112 216.332 114.532 206.867C140.629 200.457 173.748 189.657 212.981 174.769C249.604 160.864 292.597 153.473 344.404 152.162C389.585 151.026 435.726 154.662 476.437 157.878L484.027 158.476C496.973 159.799 509.25 152.585 518.653 138.149C527.231 124.979 532.559 106.683 533.28 87.9639C534.078 67.1263 529.443 47.1946 519.877 30.3402C510.358 13.5587 496.401 0.542536 478.397 -8.36009C461.506 -16.7138 441.284 -21.2694 418.116 -21.958Z" fill="white"/>
<path d="M86.2467 199.622C76.245 199.325 69.8337 196.834 66.9334 192.17C59.2291 179.777 76.7982 153.291 120.658 111.203C183.071 56.1984 242.87 18.8968 298.415 0.316952C344.254 -15.0196 377.906 -14.8646 402.112 -13.0061C464.134 -14.6943 491.98 11.2071 504.41 33.2403C512.806 48.1185 516.735 65.7798 515.777 84.3058C514.902 101.251 509.947 117.588 501.833 130.299C491.843 145.949 477.982 154.27 463.866 153.105C453.498 152.604 442.826 152.007 432.511 151.428C356.715 147.198 278.341 142.827 212.968 166.788C151.175 189.423 109.243 200.313 86.2607 199.629L86.2467 199.622ZM388.304 -12.0052C365.714 -12.6767 336.442 -10.5594 298.959 1.98082C243.638 20.4885 184.042 57.6744 121.835 112.499C79.2999 153.323 61.3156 179.825 68.4126 191.24C73.7219 199.773 93.3183 200.104 126.666 192.212C148.975 186.929 177.003 178.077 212.346 165.129C278.058 141.049 356.624 145.433 432.592 149.668C442.907 150.247 453.572 150.836 463.961 151.346C477.663 152.462 490.566 144.657 500.338 129.345C508.288 116.887 513.147 100.855 514.007 84.2102C514.948 66.0132 511.094 48.6838 502.862 34.0969C490.662 12.4789 463.281 -12.9287 402.096 -11.2514L402.003 -11.2542C397.737 -11.5816 393.169 -11.8535 388.289 -11.9985L388.304 -12.0052Z" fill="white"/>
<path d="M105.528 183.596C97.0127 183.343 90.8808 181.313 88.1673 176.862C81.4114 165.758 97.3683 142.032 136.958 104.323C196.249 54.2691 253.174 21.0442 306.175 5.54091C340.077 -4.37636 371.364 -6.93518 401.815 -2.27616C454.155 -2.75492 477.348 18.9749 487.572 37.2961C494.599 49.877 497.742 64.8785 496.679 80.672C495.705 95.1572 491.167 109.522 483.9 121.126C473.744 137.352 459.569 146.329 444.874 145.893C444.531 145.882 444.188 145.872 443.846 145.848C426.059 145.498 408.376 144.801 391.278 144.135C325.571 141.558 263.514 139.126 212.243 157.031C173.523 170.544 129.818 184.325 105.514 183.603L105.528 183.596ZM377.977 -2.81279C355.152 -3.49126 331.615 -0.207728 306.637 7.10202C253.851 22.5473 197.13 55.6636 138.044 105.538C99.6762 142.086 83.3476 165.808 89.5582 176.015C100.65 194.24 181.349 166.085 211.724 155.49C263.277 137.479 325.491 139.923 391.355 142.504C408.445 143.176 426.115 143.866 443.923 144.217C458.405 145.084 472.465 136.347 482.532 120.255C489.656 108.875 494.108 94.7801 495.067 80.5596C496.113 65.0809 493.032 50.3964 486.161 38.0923C476.148 20.1499 453.378 -1.13749 401.766 -0.644231L401.637 -0.648053C393.815 -1.85486 385.935 -2.57623 377.977 -2.81279Z" fill="white"/>
<path d="M124.588 167.593C117.029 167.368 111.692 165.547 109.357 161.595C103.55 151.773 117.917 130.787 153.272 97.4365C209.5 52.2917 263.551 23.1364 313.957 10.7582C354.913 0.699635 384.183 3.94093 401.546 8.44733C444.378 9.11873 463.036 26.8381 471.12 41.5996C482.162 61.7575 480.408 89.2435 466.643 111.623C455.966 128.993 440.058 139.051 424.063 138.576C423.991 138.574 423.927 138.572 423.855 138.57C398.48 138.79 374.882 138.117 352.063 137.474C297.502 135.931 250.385 134.602 211.561 147.253C177.006 158.498 143.705 168.154 124.581 167.585L124.588 167.593ZM370.393 5.76617C327.329 4.48611 253.576 18.821 154.247 98.5687C120.009 130.87 105.321 151.832 110.638 160.838C119.407 175.677 181.341 155.525 211.103 145.836C250.179 133.099 297.41 134.439 352.107 135.986C374.912 136.628 398.495 137.3 423.878 137.08C423.943 137.082 424.007 137.084 424.071 137.086C439.559 137.546 454.973 127.753 465.372 110.84C478.852 88.9107 480.595 62.019 469.804 42.3199C461.903 27.9005 443.627 10.565 401.43 9.94831L401.337 9.94555L401.252 9.92152C393.965 8.0214 383.624 6.15945 370.393 5.76617Z" fill="white"/>
<path d="M143.838 151.659C137.266 151.464 132.42 149.937 130.429 146.425C125.586 137.863 138.392 119.589 169.579 90.5568C222.81 50.2588 273.98 25.1874 321.731 15.9898C339.393 12.589 356.122 11.4887 371.444 12.725C386.859 13.9641 396.714 17.2874 401.276 19.1925C421.61 20.2196 437.11 25.8097 447.345 35.821C456.183 44.4655 460.649 56.125 460.25 69.5311C459.812 84.2901 453.563 99.6643 443.087 111.725C431.996 124.484 418.068 131.441 403.857 131.313C370.171 132.532 340.64 131.826 314.588 131.203C272.153 130.185 238.634 129.382 210.864 137.504L209.155 138.005C188.656 143.986 160.619 152.158 143.845 151.659L143.838 151.659ZM363.687 13.6693C352.264 13.3298 338.359 14.1845 321.984 17.337C274.441 26.4978 223.46 51.4888 170.456 91.6073C140.283 119.703 127.2 137.933 131.622 145.751C138.151 157.286 182.358 144.394 208.772 136.69L210.481 136.189C238.453 128.015 272.065 128.814 314.622 129.835C340.659 130.459 370.169 131.164 403.84 129.944C417.673 130.069 431.231 123.279 442.055 110.82C452.332 98.9973 458.464 83.9348 458.886 69.4906C459.273 56.4709 454.947 45.1666 446.387 36.7954C436.381 27.0058 421.135 21.5379 401.086 20.548L400.964 20.5443L400.851 20.498C396.36 18.6093 383.926 14.2709 363.68 13.6691L363.687 13.6693Z" fill="white"/>
<path d="M163.006 136.081C157.256 135.911 152.998 134.58 151.326 131.414C147.446 124.085 158.751 108.467 185.893 83.6843L185.952 83.6359C220.49 59.2737 273.433 28.667 329.505 21.2284C345.995 19.0393 361.889 19.0533 375.459 21.2691C386.133 23.012 395.442 26.1686 401.021 29.945C440.198 34.0252 443.482 57.5274 443.073 67.4516C442.552 80.1592 435.704 94.3049 424.751 105.298C412.988 117.113 398.468 123.774 383.859 124.063C340.367 126.811 306.333 125.792 278.993 124.972C249.46 124.087 228.15 123.446 210.16 127.754C208.727 128.099 207.236 128.456 205.709 128.826C191.147 132.34 174.23 136.415 163.006 136.081ZM186.695 84.6251C160.419 108.624 148.888 124.171 152.415 130.838C156.904 139.317 186.101 132.276 205.416 127.621C206.943 127.251 208.434 126.894 209.867 126.549C228.015 122.203 249.404 122.839 279.023 123.726C306.349 124.553 340.34 125.563 383.803 122.815C397.911 122.539 412.504 115.831 423.87 104.412C434.601 93.6346 441.319 79.793 441.831 67.386C442.669 47.1227 427.688 33.9113 400.735 31.1472L400.578 31.1282L400.452 31.0385C389.507 23.5349 363.366 17.9652 329.662 22.4366C298.859 26.5214 249.045 40.6294 186.695 84.6108L186.695 84.6251Z" fill="white"/>
<path d="M182.34 120.946C177.132 120.791 173.176 119.67 171.811 116.743C170.406 113.735 171.918 109.288 176.434 103.147C181.345 96.4657 190.01 87.6036 202.201 76.7974L202.266 76.7492C261.291 38.5434 308.266 28.3126 337.272 26.4597C370.828 24.3122 393.65 32.3121 400.78 40.7052C424.978 45.4793 427.682 59.1353 427.138 66.8633C425.642 88.0956 397.081 115.1 363.853 116.799C307.76 121.83 272.185 119.733 246.203 118.209C230.414 117.281 219 116.605 209.435 118.004C207.869 118.23 206.224 118.482 204.544 118.733C196.901 119.896 188.691 121.142 182.34 120.953L182.34 120.946ZM202.904 77.6565C180.329 97.682 170.204 110.67 172.812 116.271C175.494 122.017 191.505 119.585 204.376 117.632C206.057 117.374 207.702 117.129 209.274 116.903C218.948 115.493 230.404 116.17 246.264 117.1C272.21 118.624 307.743 120.719 363.772 115.693C378.538 114.943 394.055 108.677 406.37 98.5051C417.959 88.9347 425.304 77.0747 426.032 66.7874C426.933 54.0338 417.816 45.1446 400.377 41.7535L400.185 41.7191L400.061 41.565C394.38 34.6907 372.987 25.2862 337.347 27.5652C308.476 29.415 261.717 39.602 202.904 77.6565Z" fill="white"/>
<path d="M261.681 113.969C241.241 113.362 228.256 111.206 219.241 109.706C214.958 108.999 211.578 108.433 208.653 108.231C207.889 108.172 207.119 108.121 206.348 108.069C199.547 107.616 192.518 107.15 191.161 102.99C190.054 99.5973 191.681 92.4746 218.515 69.9107L218.581 69.8625C252.247 50.3028 285.38 38.0917 317.062 33.5602C350.324 28.8034 371.733 34.0605 381.53 37.6113C391.611 41.2708 398.511 46.3188 400.531 51.4938C412.311 56.1782 413.926 63.1895 413.189 68.2611C411.993 76.5142 403.474 86.226 390.394 94.2333C376.739 102.596 359.77 108.167 343.834 109.527C307.6 113.715 281.227 114.55 261.681 113.969ZM208.717 107.259C211.686 107.469 215.094 108.028 219.399 108.744C236.995 111.667 269.739 117.103 343.734 108.557C378.874 105.554 409.933 83.9823 412.228 68.1179C413.21 61.3127 408.975 55.8497 399.977 52.3227L399.772 52.245L399.7 52.0351C397.888 47.0596 391.142 42.1381 381.203 38.5329C370.231 34.5532 310.864 17.3933 219.107 70.6876C199.328 87.3218 190.486 97.7905 192.086 102.688C193.239 106.225 199.933 106.668 206.413 107.097C207.19 107.149 207.961 107.2 208.724 107.259L208.717 107.259Z" fill="white"/>
<path d="M245.711 108.279C241.125 108.143 236.915 107.86 233.095 107.439C214.251 105.338 209.339 100.063 207.724 98.3314C206.124 96.5789 205.435 94.7459 205.624 92.7241C206.197 86.6662 214.662 78.056 234.844 63.0171L234.91 62.9761C267.083 46.7318 299.927 37.4852 329.896 36.2412C363.759 34.8263 382.264 43.7081 388.648 47.5944C395.995 52.061 400.115 57.3056 400.258 62.3676C403.058 65.5672 403.824 68.9068 402.551 72.3005C399.538 80.3348 385.855 86.7338 374.919 90.6784C360.593 95.8476 342.445 99.9647 323.829 102.263C291.309 106.841 265.114 108.856 245.711 108.279ZM208.335 97.755C219.228 109.434 258.046 110.673 323.711 101.428C357.771 97.2252 396.696 85.4871 401.759 72.0119C402.931 68.8946 402.172 65.7987 399.522 62.8257L399.418 62.708L399.423 62.5505C399.351 57.7343 395.376 52.6873 388.205 48.3263C361.474 32.072 302.225 29.9598 235.309 63.733C215.631 78.4001 207 87.0984 206.458 92.8134C206.29 94.6066 206.887 96.1789 208.335 97.7621L208.335 97.755Z" fill="white"/>
<path d="M229.456 102.595C217.533 102.241 210.227 100.254 207.389 96.6309C205.666 94.4377 205.548 91.6761 207.032 88.1955C209.561 82.2459 218.725 75.1251 225.971 70.204C234.247 64.5756 244.158 59.0387 251.209 56.1034C289.205 40.2758 320.232 38.2752 339.563 39.3799C362.034 40.6639 381.83 47.0193 392.528 56.371C398.709 61.7772 401.305 67.7861 399.854 73.295C396.196 87.1416 371.984 88.872 343.952 90.8756C330.789 91.8169 317.182 92.7879 303.802 95.005C270.302 100.55 245.63 103.076 229.456 102.595ZM251.342 56.4369L251.483 56.7706C238.501 62.1803 212.008 78.3283 207.695 88.4875C206.327 91.7064 206.416 94.2236 207.959 96.1965C214.38 104.389 246.597 103.75 303.694 94.2997C317.11 92.0765 330.732 91.1059 343.909 90.1651C371.668 88.182 395.637 86.4659 399.166 73.117C400.551 67.8855 398.027 62.1366 392.061 56.9159C381.482 47.6609 361.841 41.3746 339.527 40.0952C320.247 38.992 289.355 40.9966 251.49 56.7636L251.35 56.4299L251.342 56.4369Z" fill="white"/>
</g>
</svg>
