<svg width="390" height="479" viewBox="0 0 390 479" fill="none" xmlns="http://www.w3.org/2000/svg">
<g opacity="0.3">
<path d="M133.097 446.205C125.654 448.199 118.425 449.953 111.448 451.453C73.142 459.693 43.6473 460.205 23.7831 452.974C3.4604 445.579 -6.20228 430.15 -4.93972 407.113C-1.10333 337.177 8.88778 291.791 15.4989 261.761C18.4745 248.245 20.825 237.567 21.4948 229.491C22.6075 216.05 37.1568 194.705 59.4618 173.781C83.4664 151.265 111.041 134.137 135.118 126.789C168.324 116.655 202.153 97.2555 224.684 82.7655C250.93 65.8863 277.378 45.5949 295.432 28.485C307.085 17.4391 320.981 13.4465 335.611 16.9377C360.944 22.9846 385.206 50.6387 398.927 89.1055C405.429 107.337 412.155 126.193 417.489 144.696C423.388 165.155 426.895 182.973 428.214 199.168C429.786 218.504 428.365 236.099 423.87 252.952C418.849 271.768 410.137 289.257 397.232 306.419C375.193 335.731 304.464 379.846 225.235 413.7C192.822 427.548 161.407 438.617 133.097 446.202L133.097 446.205ZM315.326 17.9027C308.444 19.7468 301.94 23.5012 296.023 29.1106C277.932 46.2573 251.437 66.5848 225.15 83.4896C202.574 98.0068 168.67 117.45 135.368 127.612C111.414 134.924 83.9598 151.979 60.0481 174.411C37.892 195.194 23.446 216.329 22.3501 229.567C21.6757 237.703 19.3193 248.403 16.3373 261.951C9.73136 291.956 -0.247995 337.297 -4.08206 407.164C-5.32182 429.778 4.15155 444.921 24.0779 452.173C43.787 459.345 73.122 458.823 111.269 450.619C144.724 443.424 184.016 430.387 224.898 412.918C304.005 379.117 374.59 335.114 396.548 305.91C409.384 288.837 418.05 271.447 423.042 252.736C427.512 235.978 428.926 218.48 427.36 199.242C424.426 163.149 411.052 125.657 398.12 89.3986C384.498 51.2012 360.47 23.7566 335.413 17.7779C328.494 16.1257 321.744 16.1858 315.326 17.9055L315.326 17.9027Z" fill="white"/>
<path d="M133.97 431.03C128.083 432.607 122.349 434.016 116.786 435.249C81.7075 443.024 54.7053 443.688 36.5238 437.222C18.1453 430.685 9.32277 416.921 10.3003 396.312C12.7948 334.044 21.2621 290.895 26.8634 262.346C29.4933 248.943 31.5693 238.357 32.2029 230.19C33.2314 216.988 46.5634 196.613 66.9964 177.013C88.8757 156.026 114.468 139.857 137.212 132.651C167.802 123.152 199.013 105.484 219.808 92.3382C244.238 76.8925 268.051 59.0675 285.142 43.4284C295.93 33.5612 308.739 30.1085 322.187 33.443C345.532 39.2298 367.843 64.6758 380.411 99.8567C392.301 133.036 404.598 167.346 407.304 201.16C408.73 218.971 407.414 235.191 403.282 250.746C398.675 268.096 390.691 284.23 378.886 300.068C358.704 327.326 293.801 368.409 221.057 399.978C190.363 413.298 160.621 423.892 133.968 431.033L133.97 431.03ZM302.932 34.2532C296.801 35.8959 290.998 39.1671 285.689 44.0215C268.565 59.6903 244.71 77.55 220.241 93.0179C199.404 106.19 168.128 123.893 137.457 133.419C114.828 140.59 89.3495 156.689 67.5576 177.594C47.2611 197.062 34.0244 217.24 33.0101 230.251C32.3745 238.466 30.2919 249.072 27.6597 262.5C22.0615 291.027 13.6039 334.135 11.1119 396.346C10.1535 416.562 18.7947 430.058 36.7997 436.462C54.834 442.876 81.6883 442.201 116.616 434.46C147.31 427.659 183.316 415.476 220.743 399.234C293.37 367.717 358.136 326.741 378.244 299.583C389.992 283.829 397.928 267.784 402.509 250.536C406.618 235.07 407.925 218.941 406.505 201.221C403.807 167.51 391.53 133.251 379.656 100.121C367.175 65.1918 345.083 39.9418 321.996 34.2193C315.433 32.5929 309.02 32.6189 302.931 34.2504L302.932 34.2532Z" fill="white"/>
<path d="M134.9 415.869C130.54 417.037 126.28 418.099 122.12 419.053C90.2697 426.366 65.7564 427.179 49.263 421.477C32.8289 415.797 24.8485 403.696 25.5451 385.508C26.7174 330.506 33.4388 291.13 38.3471 262.382C40.575 249.335 42.3323 239.029 42.9177 230.881C43.8768 217.718 55.6974 198.787 74.5377 180.238C94.3008 160.779 117.912 145.571 139.315 138.508C190.016 122.443 248.15 81.7793 274.858 58.3679C284.78 49.6795 296.507 46.7651 308.776 49.9423C330.129 55.4696 350.485 78.7117 361.901 110.598C372.229 139.252 383.931 171.73 386.4 203.146C387.678 219.431 386.471 234.276 382.704 248.531C378.507 264.417 371.258 279.194 360.546 293.71C351.35 306.355 332.372 322.07 305.668 339.152C280.018 355.561 248.484 372.288 216.883 386.256C187.926 399.054 159.867 409.179 134.903 415.868L134.9 415.869ZM290.518 50.5947C285.144 52.0346 280.044 54.8244 275.353 58.9335C248.6 82.3866 190.353 123.125 139.545 139.224C118.252 146.252 94.7475 161.397 75.0635 180.775C56.3522 199.197 44.614 217.95 43.6665 230.935C43.079 239.119 41.3171 249.441 39.0861 262.509C34.1835 291.235 27.4686 330.58 26.2948 385.532C25.6129 403.355 33.4227 415.206 49.5079 420.767C65.8673 426.422 90.2389 425.599 121.95 418.318C149.881 411.905 182.605 400.58 216.574 385.567C248.143 371.613 279.638 354.905 305.258 338.516C331.881 321.486 350.788 305.839 359.933 293.264C370.591 278.825 377.799 264.13 381.969 248.341C385.713 234.168 386.916 219.405 385.643 203.207C383.183 171.891 371.497 139.462 361.185 110.855C349.852 79.2008 329.696 56.1391 308.581 50.6721C302.36 49.0608 296.281 49.0505 290.515 50.5955L290.518 50.5947Z" fill="white"/>
<path d="M135.901 400.727C133.03 401.496 130.214 402.213 127.442 402.875C98.8188 409.723 76.7987 410.691 61.9907 405.753C47.5042 400.921 40.3707 390.477 40.7863 374.711C40.6307 326.467 46.0138 288.926 49.9454 261.517C51.6395 249.704 53.1024 239.504 53.6282 231.576C54.5045 218.646 65.1392 200.66 82.072 183.468C99.7314 165.541 121.36 151.286 141.412 144.366C161.468 137.859 185.204 126.487 210.062 111.477C230.014 99.4293 249.88 85.5171 264.571 73.3082C273.626 65.793 284.278 63.4182 295.373 66.4455C314.728 71.724 333.125 92.7602 343.384 121.347C354.261 151.321 363.432 178.317 365.49 205.139C366.623 219.899 365.519 233.372 362.118 246.328C358.332 260.746 351.817 274.169 342.198 287.362C333.877 299.051 316.746 313.538 292.659 329.256C269.614 344.292 241.216 359.671 212.692 372.559C185.494 384.847 159.144 394.508 135.898 400.737L135.901 400.727ZM278.08 66.9221C273.469 68.1576 269.082 70.4722 265.017 73.8455C250.302 86.0756 230.404 100.011 210.424 112.075C185.52 127.112 161.734 138.51 141.634 145.029C121.688 151.914 100.158 166.104 82.5734 183.958C65.7546 201.033 55.1941 218.854 54.3304 231.622C53.8029 239.577 52.3375 249.79 50.6408 261.614C46.7123 289.002 41.3329 326.513 41.4899 374.718C41.0826 390.15 48.0542 400.366 62.2148 405.086C76.8993 409.983 98.7903 409.008 127.283 402.193C152.458 396.167 181.894 385.699 212.409 371.91C240.901 359.036 269.266 343.678 292.28 328.659C316.295 312.99 333.359 298.565 341.633 286.943C351.202 273.819 357.679 260.474 361.443 246.142C364.823 233.263 365.921 219.865 364.795 205.187C362.743 178.454 353.589 151.507 342.73 121.578C332.544 93.2026 314.329 72.3339 295.191 67.1155C289.303 65.5096 283.539 65.4566 278.085 66.9179L278.08 66.9221Z" fill="white"/>
<path d="M136.993 385.62C135.565 386.003 134.153 386.37 132.752 386.721C107.357 393.106 87.8261 394.227 74.7027 390.05C62.1652 386.06 55.8799 377.268 56.0262 363.912C54.4739 321.794 58.6213 285.586 61.6499 259.15C62.8507 248.668 63.8892 239.614 64.3353 232.272C65.1428 219.372 74.3545 202.761 89.6056 186.698C105.178 170.297 124.822 157.004 143.507 150.228C180.801 137.782 227.07 109.375 254.281 88.2492C262.478 81.8987 272.058 80.0656 281.983 82.9478C299.332 87.9859 315.765 106.814 324.868 132.089C334.213 157.627 342.751 182.583 344.58 207.124C345.566 220.354 344.569 232.456 341.533 244.113C338.16 257.064 332.377 269.129 323.855 281.002C316.409 291.734 301.121 304.999 279.651 319.356C259.212 333.022 233.944 347.053 208.501 358.865C183.09 370.659 158.477 379.864 136.994 385.623L136.993 385.62ZM265.607 83.232C261.772 84.2595 258.104 86.1064 254.681 88.7575C227.428 109.915 181.08 138.37 143.723 150.836C125.138 157.576 105.585 170.81 90.0799 187.142C74.9304 203.098 65.7856 219.561 64.9881 232.311C64.5402 239.668 63.5011 248.73 62.2998 259.221C59.2716 285.637 55.1285 321.816 56.6781 363.903C56.5365 376.956 62.6678 385.538 74.9041 389.431C87.911 393.571 107.322 392.446 132.598 386.091C155.012 380.449 181.168 370.837 208.23 358.272C233.641 346.475 258.879 332.464 279.292 318.813C300.698 304.5 315.924 291.296 323.328 280.625C331.807 268.817 337.556 256.821 340.909 243.949C343.928 232.361 344.917 220.33 343.938 207.171C342.116 182.712 333.591 157.803 324.264 132.31C315.23 107.227 298.965 88.5516 281.81 83.5712C276.235 81.9523 270.772 81.8539 265.611 83.2368L265.607 83.232Z" fill="white"/>
<path d="M138.212 370.554L138.055 370.596C115.888 376.521 98.8475 377.794 87.4095 374.382C76.8187 371.225 71.3889 364.068 71.2719 353.11C68.1299 316.398 71.1834 280.528 73.4133 254.338C74.1115 246.136 74.716 239.053 75.0532 232.963C75.7788 220.277 83.8341 204.588 97.1472 189.923C110.652 175.047 128.317 162.71 145.611 156.082C161.681 150.533 180.083 141.963 200.319 130.612C215.539 122.072 231.46 112.075 244.001 103.182C251.345 97.9917 259.859 96.7016 268.63 99.4523C283.966 104.261 298.422 120.882 306.358 142.83C314.247 164.161 322.08 186.85 323.676 209.109C324.515 220.814 323.625 231.538 320.953 241.902C317.993 253.385 312.942 264.097 305.513 274.644C292.485 294.029 251.808 322.384 204.3 345.197C180.72 356.522 157.872 365.286 138.212 370.554ZM253.077 99.5159C250.03 100.332 247.1 101.721 244.342 103.67C231.786 112.573 215.843 122.585 200.606 131.132C180.342 142.5 161.905 151.082 145.811 156.64C128.612 163.234 111.031 175.51 97.5861 190.323C84.3623 204.891 76.3658 220.445 75.6455 232.996C75.3071 239.093 74.7041 246.181 74.0038 254.387C71.7742 280.556 68.7244 316.395 71.8646 353.079C71.9805 363.767 77.267 370.732 87.5783 373.807C98.9096 377.185 115.841 375.912 137.899 370.016L138.057 369.974C157.681 364.716 180.491 355.965 204.039 344.655C251.46 321.883 292.038 293.61 305.019 274.3C312.408 263.808 317.429 253.16 320.373 241.747C323.027 231.45 323.912 220.786 323.08 209.148C321.489 186.967 313.669 164.325 305.796 143.031C297.92 121.253 283.611 104.77 268.45 100.018C263.164 98.3605 257.969 98.2021 253.082 99.5116L253.077 99.5159Z" fill="white"/>
<path d="M139.52 355.585C122.435 360.162 109.184 361.236 100.097 358.775C91.4569 356.433 86.8866 350.903 86.5117 342.331C81.3106 310.333 83.4957 272.936 85.091 245.626C85.3402 241.34 85.5768 237.294 85.7606 233.659C86.4184 220.985 93.1385 206.601 104.681 193.153C116.322 179.596 131.601 168.51 147.705 161.941C158.968 157.881 189.874 145.496 233.714 118.122C240.215 114.084 247.681 113.338 255.307 115.972C268.608 120.565 281.074 134.974 287.84 153.573C294.349 170.936 301.407 191.132 302.765 211.097C304.202 232.198 299.099 250.903 287.166 268.287C281.461 277.124 269.857 287.955 253.617 299.609C238.149 310.707 219.639 321.758 200.089 331.568C179.898 341.697 160.276 349.635 143.342 354.522C142.047 354.895 140.771 355.249 139.517 355.585L139.52 355.585ZM240.471 115.758C238.233 116.358 236.067 117.302 234.003 118.583C226.989 122.962 212.686 131.656 195.697 140.661C177.862 150.118 161.783 157.447 147.903 162.447C131.887 168.981 116.682 180.011 105.098 193.506C93.6347 206.862 86.9606 221.13 86.3091 233.684C86.1253 237.319 85.8895 241.367 85.6409 245.656C84.046 272.945 81.8625 310.316 87.0579 342.259L87.0605 342.291C87.4173 350.607 91.8523 355.975 100.243 358.247C109.764 360.827 124.618 359.359 143.195 353.996C160.099 349.118 179.687 341.194 199.848 331.079C219.372 321.282 237.859 310.246 253.306 299.166C269.492 287.553 281.044 276.771 286.718 267.987C298.583 250.704 303.654 232.108 302.228 211.137C300.874 191.245 293.831 171.093 287.335 153.768C280.623 135.314 268.286 121.033 255.136 116.492C250.097 114.75 245.128 114.516 240.478 115.762L240.471 115.758Z" fill="white"/>
<path d="M141.389 340.648C129.258 343.899 119.457 344.806 112.775 343.265C106.065 341.716 102.359 337.775 101.756 331.545C93.3674 303.81 95.5434 255.139 96.4701 234.352C97.6748 208.38 119.606 181.012 149.802 167.799C174.141 158.544 201.904 144.187 218.492 135.612C220.253 134.703 221.908 133.848 223.435 133.06C229.109 130.158 235.554 129.973 242.06 132.519C253.298 136.917 263.743 149.101 269.325 164.319C275.208 179.722 280.797 196.29 281.856 213.087C282.987 231.009 278.725 246.986 268.822 261.933C259.312 277.455 230.681 299.459 195.881 317.985C179.147 326.892 162.809 333.992 148.633 338.518C146.137 339.314 143.719 340.027 141.387 340.652L141.389 340.648ZM227.73 131.93C226.335 132.304 224.977 132.827 223.659 133.5C222.131 134.285 220.48 135.139 218.72 136.051C202.124 144.632 174.346 158.998 149.99 168.258C119.969 181.394 98.1618 208.584 96.9651 234.376C96.036 255.143 93.8622 303.778 102.236 331.428L102.249 331.475C102.82 337.485 106.398 341.29 112.887 342.785C120.768 344.603 133.079 342.964 148.486 338.048C162.636 333.532 178.948 326.445 195.652 317.552C230.377 299.064 258.935 277.13 268.408 261.671C290.399 228.482 280.692 195.469 268.867 164.498C263.33 149.404 252.991 137.33 241.883 132.984C237.023 131.082 232.208 130.736 227.735 131.935L227.73 131.93Z" fill="white"/>
<path d="M143.562 325.971C136.147 327.958 129.965 328.667 125.482 327.939C120.655 327.153 117.803 324.742 117.007 320.775C112.58 313.801 109.546 300.7 107.985 281.833C106.848 268.087 106.555 251.035 107.183 235.046C108.229 209.389 124.946 186.442 151.902 173.66C161.501 169.742 171.437 165.461 181.047 161.321C193.476 155.967 205.216 150.913 213.159 147.997C219.852 145.571 227.508 147.212 234.715 152.615C241.548 157.737 247.412 165.918 250.812 175.06C258.976 195.882 260.518 207.381 260.95 215.073C261.778 229.81 258.352 243.06 250.48 255.575C242.685 269.241 220.173 287.978 191.728 304.464C173.558 314.995 156.642 322.469 143.563 325.973L143.562 325.971ZM214.764 147.955C214.275 148.086 213.792 148.239 213.311 148.412C205.379 151.322 193.648 156.373 181.224 161.726C171.611 165.867 161.671 170.146 152.081 174.062C125.288 186.768 108.663 209.572 107.625 235.061C106.999 251.034 107.289 268.066 108.424 281.795C109.981 300.622 113.003 313.67 117.402 320.572L117.424 320.607L117.434 320.646C118.178 324.438 120.907 326.745 125.552 327.504C137.845 329.509 163.117 320.533 191.503 304.08C219.885 287.632 242.337 268.959 250.099 255.349C257.926 242.908 261.328 229.745 260.507 215.1C259.689 200.52 254.675 186.129 250.396 175.222C247.027 166.151 241.215 158.042 234.449 152.971C227.883 148.049 220.953 146.299 214.765 147.958L214.764 147.955Z" fill="white"/>
<path d="M146.362 311.788C143.296 312.61 140.632 313.025 138.471 312.991C135.309 312.939 133.228 311.946 132.286 310.036C125.588 307.248 122.063 292.635 120.285 280.848C118.28 267.554 117.386 250.692 117.892 235.736C118.343 222.866 121.415 212.108 127.286 202.842C133.281 193.381 142.019 185.752 153.998 179.516C172.444 171.206 191.633 164.701 202.892 162.938C208.381 162.104 214.494 164.164 220.104 168.735C225.351 173.012 229.796 179.233 232.293 185.804C239.33 203.037 245.671 225.815 232.134 249.215C226.107 260.937 209.568 276.526 187.898 290.901C172.061 301.408 156.858 308.976 146.36 311.789L146.362 311.788ZM193.349 165.439C182.343 168.388 168.046 173.615 154.172 179.865C142.265 186.062 133.578 193.647 127.619 203.049C121.786 212.254 118.732 222.949 118.285 235.746C117.335 263.697 121.12 305.119 132.504 309.699L132.574 309.728L132.607 309.796C133.462 311.605 135.438 312.547 138.477 312.596C147.971 312.751 167.285 304.105 187.685 290.57C209.302 276.23 225.794 260.699 231.795 249.022C245.251 225.762 238.937 203.092 231.934 185.942L231.932 185.936C229.457 179.427 225.054 173.264 219.857 169.029C214.333 164.526 208.33 162.499 202.952 163.316C200.187 163.749 196.942 164.47 193.348 165.433L193.349 165.439Z" fill="white"/>
<path d="M150.845 298.956C149.522 299.311 148.446 299.419 147.664 299.252C145.543 300.164 143.512 299.977 141.628 298.707C136.116 294.988 132.953 282.883 131.268 273.378C129.263 262.072 128.27 248.258 128.609 236.424C128.999 223.038 130.917 213.677 134.831 206.069C139.003 197.957 145.765 191.379 156.106 185.368C168.082 179.13 182.423 176.192 192.645 177.883C201.818 179.439 210.598 188.59 213.785 196.538C220.921 212.816 220.924 228.399 213.798 242.847C211.268 248.655 206.665 255.238 200.126 262.407C194.463 268.614 187.492 275.074 179.956 281.088C168.162 290.503 156.916 297.324 150.846 298.95L150.845 298.956ZM147.629 298.901L147.683 298.913C148.434 299.087 149.479 298.985 150.769 298.639C164.13 295.059 203.687 265.199 213.486 242.712C220.57 228.349 220.564 212.865 213.467 196.68L213.466 196.674C210.314 188.811 201.64 179.759 192.582 178.222C182.428 176.543 168.169 179.467 156.26 185.67C145.984 191.643 139.265 198.174 135.122 206.228C131.234 213.788 129.327 223.104 128.938 236.436C128.6 248.249 129.594 262.037 131.593 273.324C133.267 282.763 136.398 294.78 141.809 298.431C143.605 299.642 145.545 299.808 147.573 298.922L147.623 298.899L147.629 298.901Z" fill="white"/>
<path d="M157.511 292.075C156.188 292.43 154.898 292.355 153.647 291.844C150.513 290.569 146.055 285.855 142.605 270.657C140.292 260.469 139.063 247.934 139.314 237.124C139.61 224.349 139.964 216.1 142.363 209.315C144.843 202.295 149.43 197.057 158.2 191.239C163.032 188.033 168.183 187.112 173.506 188.499C185.016 191.504 193.723 204.284 195.261 207.286C198.135 212.895 198.925 219.775 197.606 227.738C196.469 234.593 193.778 242.264 189.604 250.546C182.06 265.511 170.896 279.9 162.966 288.374C161.099 290.368 159.275 291.606 157.512 292.078L157.511 292.075ZM164.272 188.748C162.255 189.289 160.283 190.196 158.358 191.475C149.646 197.256 145.089 202.451 142.631 209.409C140.249 216.157 139.894 224.382 139.6 237.13C139.142 256.839 143.918 287.572 153.755 291.582C156.547 292.721 159.575 291.576 162.754 288.179C170.671 279.72 181.815 265.358 189.345 250.417C193.505 242.163 196.189 234.518 197.318 227.691C198.627 219.79 197.847 212.969 195.003 207.417C193.477 204.439 184.837 191.753 173.429 188.777C170.306 187.963 167.243 187.955 164.267 188.753L164.272 188.748Z" fill="white"/>
</g>
</svg>
